<?xml version="1.0" encoding="UTF-8"?>
<svg width="32px" height="32px" viewBox="0 0 32 32" version="1.1" xmlns="http://www.w3.org/2000/svg" xmlns:xlink="http://www.w3.org/1999/xlink">
    <title>AI Model Server Logo</title>
    <g id="Icon" stroke="none" stroke-width="1" fill="none" fill-rule="evenodd">
        <rect id="Background" fill="#10A37F" x="0" y="0" width="32" height="32" rx="6"></rect>
        <g id="Brain" transform="translate(6.000000, 5.000000)" fill="#FFFFFF" fill-rule="nonzero">
            <path d="M14,4 C14,1.8 12.2,0 10,0 C7.8,0 6,1.8 6,4 C6,5.3 6.6,6.4 7.5,7.1 C6.1,8 5.1,9.4 5,11 L5,13 C5,15.2 6.8,17 9,17 L11,17 C13.2,17 15,15.2 15,13 L15,11 C15,9.3 14,7.9 12.5,7 C13.4,6.3 14,5.2 14,4 Z M12,4 C12,5.1 11.1,6 10,6 C8.9,6 8,5.1 8,4 C8,2.9 8.9,2 10,2 C11.1,2 12,2.9 12,4 Z M13,13 C13,14.1 12.1,15 11,15 L9,15 C7.9,15 7,14.1 7,13 L7,11 C7,9.9 7.9,9 9,9 L11,9 C12.1,9 13,9.9 13,11 L13,13 Z" id="Shape"></path>
            <path d="M18,7 C19.93,7 21.5,8.57 21.5,10.5 C21.5,11.53 21.02,12.44 20.27,13.01 C20.42,13.47 20.5,13.97 20.5,14.5 C20.5,16.99 18.49,19 16,19 C13.51,19 11.5,16.99 11.5,14.5 C11.5,14.34 11.51,14.18 11.52,14.03 C10.64,13.8 10,13 10,12 C10,11.22 10.36,10.53 10.92,10.12 C10.69,9.61 10.55,9.06 10.51,8.5 C10.47,7.94 10.52,7.38 10.66,6.85 C11.41,4.01 14.35,2.22 17.2,2.97 C18.18,3.22 19.05,3.74 19.74,4.46 L19.75,4.47 C20.44,5.2 20.93,6.12 21.12,7.16 L18.17,7.16 C17.9,6.47 17.01,5.99 16,6 C14.62,6 13.5,7.12 13.5,8.5 C13.5,9.88 14.62,11 16,11 C17.38,11 18.5,9.88 18.5,8.5 L18.49,8.25 L18,7 L18,7 Z M18,9 C18,8.45 17.55,8 17,8 C16.45,8 16,8.45 16,9 C16,9.55 16.45,10 17,10 C17.55,10 18,9.55 18,9 Z M2,8 C0.9,8 0,8.9 0,10 C0,11.1 0.9,12 2,12 L3,12 L3,8 L2,8 Z" id="Shape"></path>
        </g>
    </g>
</svg>